<?xml version="1.0" encoding="utf-8"?>
<!-- Generator: Adobe Illustrator 23.0.1, SVG Export Plug-In . SVG Version: 6.00 Build 0)  -->
<svg version="1.1" id="圖層_1" xmlns="http://www.w3.org/2000/svg" xmlns:xlink="http://www.w3.org/1999/xlink" x="0px" y="0px"
	 viewBox="0 0 155.2 97.9" style="enable-background:new 0 0 155.2 97.9;" xml:space="preserve">
<title>資產 1ldpi</title>
<g>
	<g id="圖層_1-2">
		<path d="M7.1,46.2c0,0,2-0.6,1.9-2c0.3-0.4,0.4-0.9,0.4-1.4c0.3-0.4,0.5-0.9,0.6-1.3c0,0,0.7-0.7-1.2-1.7L8,39
			c-1.3-1-2.8-1.7-4.3-2.2c0,0-2.2-0.9-3.2,0C0.5,36.8,0,37,0,38c0.3,0.8,0.6,1.6,1.1,2.4l1,1.7l0.1,1c0.3,0.6,0.7,1.2,1.1,1.7
			C3.3,44.7,4.2,46.6,7.1,46.2z"/>
		<path d="M14.5,40.6c0.1,0.5,0.2,0.9,0.2,1.4c0,0,0.2,1.4,2.4,1.3c1.4-0.2,2.7-0.7,3.8-1.4c2-0.6,3.9-1.3,5.7-2.3l2.3-1
			c0,0,3.5-1.4,5-1.9c2.6-1.1,5.3-1.8,8.1-2.3c3.7-0.4,7.4-0.3,11,0.3c2.1,0.2,4.3,0.1,6.4-0.1c0.7-0.1,1.2-0.6,1.3-1.3
			c0-0.2,0.1-0.5,0.3-0.6c0,0,0.4-1.7-2-2.6c-1.7-0.6-3.5-1-5.3-1.1c-1.8-0.4-3.7-0.4-5.5,0.1c-1.3,0.2-2.7,0.3-4,0.2
			c0,0-1.5,0.1-1.3-1V25c0,0-0.2-0.4,3.7-1.6c1.3-0.9,2.5-2.1,3.3-3.5c0,0,0.9-1.4-0.1-2.3L49,16.3l-2.8,0.2c0,0-3.7,0.2-3.9-1.5
			c0,0-0.3,0.2,0-2.5l0.3-2.7c0,0,0.5-3.7,0.1-4.7c0,0-0.5-3.4-6-4.5c0,0-3.7-1-5.4-0.1c-0.8,0.1-1.3,0.9-1.2,1.7
			c0,0.2,0.1,0.4,0.2,0.6l0.5,4.8C30.9,8,31,8.4,31.3,8.7c0.6,2,1.1,4.1,1.4,6.3c0.1,0.9-0.5,1.8-1.4,2.1c-1.8,0.7-3.7,1.1-5.6,1.2
			l-4.3,0.1c0,0-3.5-0.1-3.9,1.5c-0.1,0.6-0.1,1.2,0,1.8l0.3,3.1c0,0,0,0.5,0.8,0.6l1.5,1.1c0,0,0.3,0.3,1.3-0.1
			c2.5,0.1,4.9,0,7.4-0.4c0,0,2.8-0.4,4.4-0.5c0,0,1-0.2,0.8,2.3c0,0-0.8,3.1-2.9,4c-2.8,1.3-5.7,2.2-8.8,2.8
			c-1,0.3-1.9,0.3-2.9,0.3l-2.9-0.2c0,0-1.8-0.9-2.7-0.4l-0.1,0.6c-0.4,0.9-0.4,1.9-0.2,2.9C13.8,38.5,14.1,39.6,14.5,40.6z"/>
		<path d="M80.2,89.1l-1.3-0.7l-2.7-0.1l-1-0.2c-2-0.6-6.8-0.3-6.8-0.3c-3.7-0.1-8.8-0.1-8.8-0.1c-1.8,0-3.7-0.2-5.5-0.6
			c-2.5-0.6-5-1-7.6-1.2c-1.2,0-2.3-0.2-3.4-0.6c-2.2-0.6-4.5-1-6.8-1.1c-0.7,0-1.4-0.2-2.1-0.4c-1.9-0.9-7.1-2.4-7.1-2.4l-2.7-0.9
			c-2.7-0.9-3.3-1.6-3.3-1.6c-0.6-0.3-0.9-1-0.6-1.7c0.3-0.8,1.7-1.3,1.7-1.3l2.1-1.4c1-0.2,2.4-1.9,2.4-1.9l2-1.6
			c1.5-0.6,1.5,1.1,1.5,1.1v4.7c0.2,0.5,0.3,1,0.4,1.5c0.2,0.4,2,0.3,2,0.3l0.3-0.3c0.5,0.2,1.1,0.3,1.6,0.1
			c0.9-0.4,1.5-1.2,1.8-2.1c1.1-0.6,1.3-2.8,1.3-2.8l1.1-2.9c0-0.7,0.5-1.3,1.2-1.3c0.1,0,0.2,0,0.3,0c2.4,0.4,4.6,1.3,6.7,2.6
			c0.5,0.3,0.9,0.6,1.3,1l1.3-0.1c2,1.3,3,0.5,3,0.5c0.8,0,1.6-0.1,2.4-0.3c1.3-0.2,2.6-0.7,3.7-1.4C62.1,70.4,62,70,62,70
			c1.1-1.1,0-1.4,0-1.4l-1.8-1.2c-1.5-0.1-3.3-0.2-3.3-0.2c-1.4-0.4-2.9-0.7-4.3-0.9l-1-0.2c-1-0.2-4.5-0.8-4.5-0.8
			C46,65.1,47,64.4,47,64.4l3.8-1.3c4.6-1.6,5.7-2.4,5.7-2.4c0.9-0.5,0.6-2.1,0.6-2.1c-0.6-0.9-0.9-1.9-1-2.9c-0.1-3.2-0.9-3-0.9-3
			h-1.4h-0.6c-0.7-0.1-1.4-0.3-2.1-0.6c-1.3-0.8-1.6-3-1.6-3c-0.4-1-0.2-2.1,0.5-2.9c1.1-1.2,3.5-4.6,3.5-4.6c1.3-1.6-1-2.8-1-2.8
			l-1-0.8c-0.9-0.5-1.1-0.3-1.1-0.3L49.6,38c-0.7-0.1-4.5,0.3-4.5,0.3c-9.3,1.4-11.4,2.5-11.4,2.5c-2.2,0.6-4.2,1.9-5.7,3.6
			c-0.7,0.5-1.4,1-2,1.7c-1,1.5-0.5,5-0.5,5c0.1,1,0.2,2,0.2,3c-0.3,0.4-0.7,0.8-1.2,1c0,1.3,0.4,2.5,1.1,3.5l0.7,2.1
			c-0.1,0.6,0.5,1.5,0.5,1.5c0.2,0.7,0,1.4-0.5,2c-0.8,0.6-1.5,1.3-2.2,2c-1.7,1.2-3,2.8-3.8,4.7c-0.9,0.6-1.7,1.5-2.1,2.6L18.1,74
			l-0.6,0.6c-1,2-3.6,1.4-3.6,1.4c-0.5-0.2-0.8-0.8-0.8-1.3l0.1-3.6c0.3-4.2-0.6-5.4-0.6-5.4c-0.2-1.3-0.4-2.7-0.4-4.1
			c0.2-1.2,0.2-2.4,0.1-3.6c-0.4-1-0.6-2-0.7-3c-2.5-3.4-5.4-3.1-5.4-3.1c0,0.9,0,1.9,0.2,2.8L7,56.1c0.1,0.7,0.1,2.3,0.1,2.3
			c0.2,1.4,0.1,2.8-0.1,4.3c-0.2,0.9-0.2,1.9-0.1,2.9L7,68.4c-0.2,1.7-0.7,5.9-0.7,5.9c-0.3,0.4-0.5,0.9-0.6,1.3
			c-0.2,1.8-0.3,3.6-0.2,5.3c-0.1,0.8,0.1,1.6,0.5,2.3c0.8,0.6,1.7,1.1,2.7,1.2l5.8,0.1c1.5,0.1,2.9,0.4,4.3,0.8
			c2.6,0.6,5.2,1.4,7.7,2.4c3.4,2.6,4.1,2.5,4.1,2.5c1,0.7,2.1,1.3,3.3,1.7l1.2,0.7l1,0.4c0.5,0.7,3.6,1,3.6,1l2,0.8
			c1.1,0.2,5.4,2.9,5.4,2.9h2.1c0-0.3,1.7-1.2,1.7-1.2l0.5-0.2c0.9-0.6,1.9-1.1,3-1.4c3.4-0.4,3.9-0.8,3.9-0.8l4.2-0.6l8.6-0.2
			c1.8-0.1,3.7,0.2,5.4,0.7c0.4,0.5,1.1,0.8,1.8,0.8c1.2,0.1,1.4-1.3,1.4-1.3c0.3-0.1,0.5-0.4,0.5-0.7c0.5-0.7,1.1-1.4,1.7-2
			c0.6-0.5-0.2-1.2-0.2-1.2C81.6,89.2,80.9,88.9,80.2,89.1z M44.5,55.5c0.8-1.1,2.2-1.6,3.5-1.4l1.2,0.1c0,0,0.5,0.2,0.1,1.3
			c0,0-0.2,1.4-1,1.8c-0.4,0.7-1,1.2-1.8,1.4c0,0-0.9,1.1-1.7,1.2c-0.7,0.3-1.3,0.7-1.8,1.2l-1.6,1c0,0-1.1,0.4-1-0.3l0.2-2.3
			c0.2-0.5,0.6-1,1-1.3c0.6-0.8,1.4-1.4,2.3-1.8L44.5,55.5z M32.3,45.6c0.5-0.5,1.1-0.9,1.8-1.2l3.2-0.5c0.5,0,0.9-0.2,1.3-0.4
			c0.5-0.2,1-0.3,1.5-0.2c0.4-0.1,0.8-0.3,1.1-0.4c0.9-0.3,1.9,0,2.5,0.8c0,0,0.7,0.6-1.6,1.8c-0.5,0.9-1.2,1.7-2.1,2.1l-0.6,0.6
			L38,48.9l-0.6,0.5L37,49.5c-0.8,0.5-1.6,0.8-2.5,0.9c-0.6,0.2-1.2-0.1-1.4-0.7l-0.6-1V48C32,47.3,31.9,46.4,32.3,45.6z"/>
		<path d="M154.4,61.3c-0.6-0.3-1.8-0.7-1.8-0.7c-0.8-0.7-1.7-1.3-2.7-1.8c-0.7-0.6-2.8-2.3-2.8-2.3c-0.4-0.6-0.8-1.1-1.3-1.5
			c-0.5-1-1.4-1.8-2.4-2.3c-1.8-0.9-1.8,1.5-1.8,1.5c0.2,1.5,0.4,2.9,0.8,4.4l0.3,6.5c-0.1,1.4-1.9,3.6-1.9,3.6
			c-0.6,0.5-1.2,1-1.7,1.6l-0.8,0.8c-0.8,0.7-1.7,1.4-2.5,2c-1.1,1.1-4.7,2.5-4.7,2.5c-1.3,0.4-2.6,0.9-3.8,1.4
			c-0.9,0.1-1.8,0.3-2.7,0.5l-5.7,0.2c-2.3,0.1-4.7-0.4-6.8-1.3c-1.6-0.9-3.4-2.1-3.4-2.1c-0.8-0.5-1.6-1.2-2.2-2
			c-0.7-0.9-1.2-1.9-1.5-3l0.8-1.2c0.4-0.2,0.6-0.6,0.8-0.9c0.5-0.6,1.1-1.1,1.8-1.3c0.7-0.6,2.3,0.5,2.3,0.5c0.5,0.3,1,0.6,1.6,0.8
			l0.5,0.1c0.7,0.4,1.5,0.5,2.2,0.2c0.4-0.2,0.8-0.6,1.1-1c1-0.4,1.4-2.5,1.4-2.5c0.5-1.5,0.9-3.9,0.9-3.9c0.3-0.4,0.6-1,0.6-1.5
			c0.1-0.9,0.3-1.9,0.6-2.8l1.3-5c0.9-4.5,1.2-7.6,1.2-7.6c0.7-4.8,0.9-9.9,0.9-9.9c0.2-0.7,0.4-1.5,0.5-2.3
			c0.2-0.4,0.3-0.9,0.2-1.4c-0.4-2.8-2.3-3.2-2.3-3.2h-0.3c-2.2-1-4.5-1.5-6.9-1.6c-4.8-0.4-6.1,0.6-6.1,0.6
			c-1.1,0.3-4.4,1.9-4.4,1.9c-1.1,0.2-2,0.7-2.9,1.3c-2.1,0.7-4.1,1.6-6,2.6c-0.9,0.5-1.9,0.8-3,0.7c-1.5-0.3-3.7-2.7-3.7-2.7
			c-0.4-0.7-1.7-0.5-1.7-0.5c-0.8,1-1.3,2.2-1.3,3.5c0,0.3-0.2,1.7-0.2,1.7c-0.5,1.3-0.1,4.5-0.1,4.5c-0.5,1.5,0,6.3,0,6.3
			c-0.3,0.1-0.2,6.3-0.2,6.3v1.9c-0.3,1.3-0.5,2.6-0.4,3.9c0,1.3,0,4.1,0,4.1C84,62.7,85.4,66,85.4,66c0.7,1.4,1.9,2.5,3.4,3.1
			l0.6,0.4c0.7,0.3,0.4,1.2,0.4,1.2c-0.5,0.6-1,1.2-1.6,1.8c-0.5,0.2-0.9,0.4-1.3,0.7c-0.5,0.1-0.9,0.3-1.3,0.6
			c-1,0.4-2.1,0.7-3.2,0.7c-0.9,0-1.8,0-2.7,0.3c-2.7,0.4-2.7,1-2.7,1c-0.5,0.2-0.2,0.8-0.2,0.8c0,0.8,1.6,2.3,1.6,2.3
			c0.6,0.2,1.2,0.5,1.7,0.9c0.6,0.6,1.2,1.1,1.8,1.6c1.3,0.8,2.7,1.3,4.2,1.4c2,0.3,4.6-1.9,4.6-1.9c2.5-1.7,2.9-2.4,2.9-2.4
			l1.3-1.3c0.6-0.8,1.4-1.4,2.3-1.9c0.7-0.8,2-0.9,2.8-0.2c0.2,0.1,0.3,0.3,0.4,0.5c0.9,0.9,3.5,3.4,3.5,3.4
			c0.8,0.9,1.7,1.7,2.8,2.4l1.4,0.6c1.3,0.7,2.8,1.3,4.3,1.7c1.6,0.8,8.8,0.6,8.8,0.6c2.8,0.2,5.6,0,8.4-0.6
			c1.9-0.4,3.7-0.9,5.5-1.4c1.7-0.6,3.4-1.3,4.9-2.2c1.3-0.5,2.5-1.1,3.6-1.8l2.1-1.7c2.5-1.7,4.8-3.7,6.6-6.2
			c1.7-1.6,2.6-3.9,2.7-6.2C155.3,61.4,154.4,61.3,154.4,61.3z M98.8,62.8c0,0-0.2,0.5-1.2,1.1c0,0-0.7,0.6-0.9,0.8
			c0,0-1.1,0.7-1.1,0c0,0-0.3-0.1-0.1-1.3c0,0,0.1-0.9,1.3-1c0,0,0.4-0.5,1.8-0.1H99C99.1,62.3,99.3,62.8,98.8,62.8z M100.9,54.2
			c0,0-4.3,0.6-5,0.7l-0.6-0.1c0,0,0-0.5-0.3-0.4c0.2-0.4,0.3-0.9,0.3-1.3l0.1-1.9c0,0,0.1-1,1.9-1.3c0.9,0,1.7-0.2,2.5-0.7
			c0,0,3-0.7,3.5-1.8c0,0,1.8-0.4,2-1.2c0.5-0.4,0.8-0.8,1.1-1.3c0,0,0.8-0.6,0.8-1.3c0,0,0.5-1.2,0-1.5c0,0,0.2-0.7-0.8-0.7
			c-1.2-0.4-2.4-0.3-3.5,0.2l-4.2,1.1c0,0-2.3,0.4-2.9,0c0,0-0.7-0.2-0.4-0.6c-0.2-1-0.2-2.1-0.1-3.1c0,0,0.2-1,1.7-0.8l1.5,0.3
			c0,0,2.4,0.6,2.9,0.7c0,0-0.5,0.1,1.6,0.1c0.8,0.1,1.5,0.4,2.2,0.7c0.9,0.3,1.8,0.3,2.6-0.2l1.4-0.8c0.3-0.2,0.5-0.4,0.7-0.8
			c0,0,0.5-0.6,0.7-0.7c0,0,0.3-2.3-0.9-2.8c-0.8-0.4-1.6-0.9-2.3-1.5c0,0-1.2-0.6-2.4-1.1c-0.5-0.1-1-0.3-1.5-0.6
			c0,0-0.5-0.5,0.3-0.6c0.7-0.2,1.3-0.4,1.9-0.6c1.2-0.6,2.6-0.6,3.8-0.1l1.2,0.4c0,0,1.3,0.3,1.5,2.6c0,0,0.4,5.5,0.3,7.6
			c0,2.6-0.2,5.2-0.7,7.8l-0.3,1.9c-0.4,0.6-0.7,1.2-0.8,1.9c0,0-0.4,0.5-2.3,0.7C105.8,53.2,103.3,53.6,100.9,54.2z"/>
	</g>
</g>
</svg>
